<svg xmlns="http://www.w3.org/2000/svg" width="166" height="68" viewBox="0 0 166 68"><g fill="#FFF" transform="translate(0 1)"><polygon points="14.129 0 14.129 66.611 0 66.611 0 0"/><path d="M23.3785917 31.5530992C21.6586953 31.5530992 20.2987772 32.0980664 18.8488645 32.9130173L18.8488645 32.188061C21.4737064 28.2932956 26.5484007 24.8535028 32.4330462 24.8535028 40.4925607 24.8535028 43.8423589 29.3832299 43.8423589 36.6277935L43.8423589 66.5409915 29.7182097 66.5409915 29.7182097 37.6227336C29.7182097 33.3629902 27.4533462 31.5530992 23.3785917 31.5530992ZM29.1532438 11.4293115C29.1532438 6.80958978 32.6830311 3.91476417 36.7577857 3.91476417 41.0125294 3.91476417 44.4573218 6.81458948 44.4573218 11.4293115 44.4573218 16.0490332 40.7425456 18.7638696 36.7577857 18.7638696 32.8630203 18.7638696 29.1532438 16.0490332 29.1532438 11.4293115Z"/><path d="M3.64478043 8.68947654 3.69977712 8.68947654C3.94976206 8.14950907 4.39973496 7.65953858 5.03469671 7.21956509 5.67465815 6.77959159 6.49460876 6.55960484 7.50454792 6.55960484 8.36949581 6.55960484 9.09945184 6.70459611 9.7044154 6.98957894 10.309379 7.27956147 10.7993494 7.65453888 11.1743268 8.12451057 11.554304 8.59448226 11.8242877 9.13444973 11.9842781 9.74441299 12.1442684 10.3543762 12.2292633 10.9943377 12.2292633 11.6592976L12.2292633 19.8388049 8.98945847 19.8388049 8.98945847 13.2792C8.98945847 12.9192217 8.96945967 12.5192458 8.93446178 12.0792723 8.89946389 11.6392988 8.80446961 11.2243238 8.64947895 10.839347 8.49448828 10.4543702 8.25950244 10.1293898 7.93452202 9.86940546 7.60954159 9.60942112 7.1695681 9.47942895 6.60960183 9.47942895 6.06963436 9.47942895 5.61466177 9.56942353 5.24468406 9.74941269 4.87470634 9.92940184 4.56972472 10.1743871 4.32473947 10.4793687 4.07975423 10.7843503 3.90476477 11.1343293 3.7997711 11.5343052 3.68977772 11.9292814 3.63978074 12.3442564 3.63978074 12.7742305L3.63978074 19.8488043.399975905 19.8488043.399975905-7.10499935e-15 3.63978074-7.10499935e-15 3.63978074 8.68947654 3.64478043 8.68947654ZM27.8083248 19.8438046 24.7285103 19.8438046 24.7285103 17.7639299 24.6735136 17.7639299C24.368532 18.4138907 23.8985603 18.973857 23.2685983 19.4538281 22.6386362 19.9287995 21.7836877 20.168785 20.7037528 20.168785 19.8388049 20.168785 19.1038492 20.0287934 18.5038853 19.7488103 17.8989218 19.4688272 17.4089513 19.0938498 17.0339739 18.6138787 16.6539967 18.1389073 16.384013 17.5939401 16.2240226 16.9789772 16.0640323 16.3690139 15.9790374 15.7290525 15.9790374 15.0640925L15.9790374 6.88458527 19.2188422 6.88458527 19.2188422 13.4441901C19.2188422 13.8041684 19.238841 14.2041443 19.2738389 14.6441178 19.3088368 15.0840913 19.4038311 15.4990663 19.5588218 15.8840431 19.7138124 16.2690199 19.9437986 16.5940004 20.2587796 16.8539847 20.5737606 17.113969 21.0187338 17.2439612 21.5936992 17.2439612 22.1336666 17.2439612 22.5886392 17.1539666 22.958617 16.9739775 23.3285947 16.7939883 23.6335763 16.5490031 23.8785615 16.2440214 24.1235468 15.9390398 24.2985362 15.5890609 24.4035299 15.189085 24.5135233 14.7941088 24.5635203 14.3791338 24.5635203 13.9491597L24.5635203 6.88458527 27.8033251 6.88458527 27.8033251 19.8438046 27.8083248 19.8438046ZM30.5181616 6.88458527 34.0829468 6.88458527 37.7027288 15.8740437 37.7577254 15.8740437 40.9975303 6.88458527 44.372327 6.88458527 38.2426962 22.6236371C38.0077104 23.2336004 37.7527257 23.7735679 37.4727426 24.2285404 37.1927595 24.6885127 36.867779 25.0734895 36.4878019 25.3884706 36.1078248 25.7034516 35.6628516 25.9384374 35.1528824 26.0884284 34.6379134 26.2434191 34.0229504 26.3184146 33.3029938 26.3184146 32.4580447 26.3184146 31.6280947 26.2084212 30.8181435 25.9934341L31.2231191 23.0786097C31.473104 23.1686043 31.7380881 23.2435998 32.0180712 23.3085959 32.2980543 23.3685923 32.5780375 23.4035901 32.86802 23.4035901 33.2629962 23.4035901 33.597976 23.3685923 33.8679598 23.2935968 34.1379435 23.223601 34.3679296 23.1086079 34.5579182 22.958617 34.7479068 22.8036263 34.9028974 22.608638 35.0328896 22.3636528 35.1578821 22.1186676 35.2928739 21.828685 35.4378652 21.4887055L36.0578278 19.9487983 30.5181616 6.88458527ZM59.4514186 6.88458527 59.4514186 18.6838745C59.4514186 19.853804 59.3064273 20.9137401 59.0214445 21.8586832 58.731462 22.8036263 58.2864888 23.6035781 57.6865249 24.2635383 57.0815614 24.9184989 56.3216071 25.4284682 55.4066622 25.7884465 54.4867177 26.1484248 53.401783 26.328414 52.1418589 26.328414 50.9369315 26.328414 49.7920005 26.1734233 48.7120655 25.8684417 47.6321306 25.56346 46.6321908 25.0034938 45.7172459 24.1935426L47.6621288 21.5487019C48.3120896 22.143666 48.987049 22.6036383 49.6870068 22.9236191 50.3869646 23.2485995 51.1969158 23.4085898 52.1168604 23.4085898 52.8918137 23.4085898 53.5417746 23.2985965 54.0767424 23.0836094 54.6067104 22.8686224 55.0316848 22.5686404 55.3466659 22.193663 55.6616469 21.8186856 55.8866333 21.3587133 56.0216252 20.8287453 56.1566171 20.2987772 56.2266129 19.7088127 56.2266129 19.0588519L56.2266129 18.1139088 56.1716162 18.1139088C55.7016445 18.7438709 55.0816818 19.2188422 54.3067285 19.5288236 53.5317752 19.8438046 52.7418228 20.003795 51.9318716 20.003795 50.96193 20.003795 50.0769833 19.8288055 49.2870309 19.4788266 48.4970785 19.1288477 47.8171195 18.6538763 47.2471538 18.0589121 46.6821878 17.463948 46.2422143 16.7639901 45.9372327 15.9540389 45.6322511 15.1440877 45.4772604 14.2791398 45.4772604 13.3641949 45.4772604 12.4092525 45.6222517 11.5193061 45.9072345 10.6893561 46.197217 9.85940606 46.6171917 9.13944943 47.177158 8.52948618 47.7371243 7.91952292 48.4070839 7.43455214 49.1870369 7.08457322 49.9719896 6.7345943 50.8669357 6.55960484 51.8718752 6.55960484 52.7918198 6.55960484 53.6467683 6.739594 54.4367207 7.09957231 55.2266731 7.45955063 55.8566351 8.03451599 56.3266068 8.8294681L56.3816035 8.8294681 56.3816035 6.88458527 59.4514186 6.88458527 59.4514186 6.88458527ZM52.5368351 9.47442925C51.9618698 9.47442925 51.4369014 9.56942353 50.9719294 9.75941208 50.5019577 9.94940064 50.1019818 10.209385 49.7720017 10.5443648 49.4370219 10.8793446 49.1770375 11.2843202 48.987049 11.7592916 48.7970604 12.234263 48.7020661 12.7642311 48.7020661 13.3391964 48.7020661 13.8591651 48.7970604 14.3491356 48.987049 14.7991085 49.1770375 15.2490814 49.4420216 15.6440576 49.7820011 15.9890368 50.1219806 16.3290163 50.5269562 16.5990001 50.9969279 16.798988 51.4668996 16.998976 51.9668695 17.0939702 52.5068369 17.0939702 53.1018011 17.0939702 53.6367689 16.9939763 54.1117403 16.798988 54.5867116 16.5990001 54.9916872 16.334016 55.3266671 16.0040359 55.6616469 15.6690561 55.9166315 15.2690802 56.0966207 14.8041082 56.2766098 14.3341365 56.3666044 13.8341666 56.3666044 13.2941991 56.3666044 12.1592675 56.0266249 11.2443226 55.3416662 10.5393651 54.6617071 9.82440817 53.7267634 9.47442925 52.5368351 9.47442925ZM65.5660502 14.4941269C65.6760436 15.4640684 66.051021 16.2240226 66.7009819 16.7639901 67.3509427 17.3039576 68.1308957 17.5739413 69.0508403 17.5739413 69.8607915 17.5739413 70.5407506 17.4089513 71.0907174 17.0739714 71.6406843 16.7389916 72.1206554 16.3240166 72.5356304 15.819047L74.8554906 17.5739413C74.1005361 18.508885 73.255587 19.1788446 72.3156436 19.5738209 71.3807 19.9687971 70.400759 20.168785 69.370821 20.168785 68.4008795 20.168785 67.4809349 20.0087947 66.615987 19.6838142 65.7510391 19.3588338 65.006084 18.8988615 64.3761219 18.3088971 63.7461599 17.7139329 63.24619 16.998976 62.8762123 16.1640263 62.5062346 15.3290766 62.3212457 14.3941329 62.3212457 13.3691946 62.3212457 12.3442564 62.5062346 11.4093127 62.8762123 10.574363 63.24619 9.73941329 63.7461599 9.01945666 64.3761219 8.4294922 65.006084 7.83452804 65.7510391 7.37455575 66.615987 7.05457503 67.4809349 6.7295946 68.3958798 6.56960424 69.370821 6.56960424 70.2707668 6.56960424 71.0957171 6.7295946 71.8406722 7.04457563 72.5856274 7.35955665 73.2255888 7.81452925 73.7555569 8.4094934 74.285525 9.00445756 74.7005 9.73941329 74.9954822 10.6093609 75.2904644 11.4843082 75.4404554 12.4842479 75.4404554 13.6191796L75.4404554 14.509126 65.5660502 14.509126 65.5660502 14.4941269ZM72.2056503 12.0642732C72.1856515 11.1093308 71.8906692 10.3593759 71.3157039 9.80940907 70.7407385 9.2594422 69.9407867 8.98445877 68.9108487 8.98445877 67.9409072 8.98445877 67.1709536 9.2644419 66.6009879 9.81940847 66.0360219 10.3793747 65.686043 11.1243299 65.5610505 12.0592735L72.2056503 12.0592735 72.2056503 12.0642732ZM78.5202699 6.88458527 81.6000843 6.88458527 81.6000843 8.96445997 81.655081 8.96445997C81.9600626 8.31449913 82.4300343 7.75453286 83.0599964 7.27456177 83.6899584 6.79959039 84.5449069 6.55960484 85.6248419 6.55960484 86.4897898 6.55960484 87.2197458 6.70459611 87.8247094 6.98957894 88.4296729 7.27956147 88.9196434 7.65453888 89.2946208 8.12451057 89.6745979 8.59448226 89.9445817 9.13444973 90.104572 9.74441299 90.2645624 10.3543762 90.3495573 10.9943377 90.3495573 11.6592976L90.3495573 19.8388049 87.1097524 19.8388049 87.1097524 13.2792C87.1097524 12.9192217 87.0897536 12.5192458 87.0547557 12.0792723 87.0197578 11.6392988 86.9247636 11.2243238 86.7697729 10.839347 86.6147822 10.4543702 86.3797964 10.1293898 86.054816 9.86940546 85.7298356 9.60942112 85.2898621 9.47942895 84.7298958 9.47942895 84.1899283 9.47942895 83.7349557 9.56942353 83.364978 9.74941269 82.9950003 9.92940184 82.6900187 10.1743871 82.4450334 10.4793687 82.2000482 10.7843503 82.0250587 11.1343293 81.9200651 11.5343052 81.8100717 11.9292814 81.7600747 12.3442564 81.7600747 12.7742305L81.7600747 19.8488043 78.5202699 19.8488043 78.5202699 6.88458527ZM101.218902 10.474369C100.58894 9.59442202 99.7439913 9.14944883 98.6790555 9.14944883 98.2490814 9.14944883 97.824107 9.2594422 97.409132 9.47442925 96.994157 9.6894163 96.7891693 10.0393952 96.7891693 10.5293657 96.7891693 10.9243419 96.9591591 11.2143244 97.3041383 11.3943136 97.6441178 11.5743028 98.0790916 11.7292934 98.5990603 11.8542859 99.119029 11.9792784 99.6839949 12.1092705 100.288958 12.2442624 100.893922 12.3792543 101.453888 12.5842419 101.978857 12.864225 102.498825 13.1442082 102.933799 13.5241853 103.273779 14.0091561 103.613758 14.4941269 103.788748 15.1590868 103.788748 16.0090356 103.788748 16.7839889 103.623758 17.4339498 103.288778 17.9689175 102.953798 18.4988856 102.523824 18.9288597 101.993856 19.2488404 101.463888 19.5738209 100.863924 19.8088067 100.198964 19.9487983 99.534004 20.0937895 98.869044 20.1637853 98.1990844 20.1637853 97.1891452 20.1637853 96.264201 20.018794 95.4192519 19.7338112 94.5743028 19.4438287 93.8193482 18.92386 93.1493886 18.1689055L95.3092585 16.1440275C95.7242335 16.6139992 96.1692067 16.9939763 96.6441781 17.2939582 97.1191494 17.5889404 97.6991145 17.7389314 98.3840732 17.7389314 98.6190591 17.7389314 98.8590446 17.7139329 99.1140293 17.6589362 99.3640142 17.6039395 99.5990001 17.5139449 99.8139871 17.3889525 100.028974 17.26396 100.203964 17.1039696 100.338955 16.9139811 100.473947 16.7239925 100.538943 16.5040058 100.538943 16.2540208 100.538943 15.8040479 100.368954 15.4690681 100.023974 15.2540811 99.6839949 15.039094 99.2490211 14.8641046 98.7290525 14.7291127 98.2090838 14.5941208 97.6441178 14.4691284 97.0391543 14.3491356 96.4341907 14.2341425 95.8742244 14.044154 95.3492561 13.7841696 94.8292874 13.5241853 94.3943136 13.1592073 94.0543341 12.6892356 93.7143546 12.2192639 93.5393651 11.5743028 93.5393651 10.7443527 93.5393651 10.0243961 93.6893561 9.39943377 93.9843383 8.86946569 94.2793205 8.33949762 94.6742967 7.90452382 95.1592675 7.55954461 95.6442383 7.21956509 96.2042046 6.96458045 96.8341666 6.80459008 97.4641287 6.64459972 98.1040901 6.55960484 98.7490513 6.55960484 99.6139992 6.55960484 100.468948 6.70959581 101.313897 7.00457804 102.158846 7.29956027 102.843805 7.80952955 103.363773 8.52948618L101.218902 10.474369ZM0 30.8281429C0 30.3081742.194988254 29.8532016.579965062 29.4632251.964941871 29.0782483 1.45491235 28.88326 2.04987651 28.88326 2.64484067 28.88326 3.14481055 29.0682489 3.54978616 29.4382266 3.95476176 29.8082043 4.15974941 30.2731763 4.15974941 30.8281429 4.15974941 31.3831095 3.95476176 31.8480814 3.54978616 32.2180592 3.14481055 32.5880369 2.64484067 32.7730257 2.04987651 32.7730257 1.45491235 32.7730257.964941871 32.5780375.579965062 32.1930607.194988254 31.8030842 0 31.3481116 0 30.8281429ZM.459972291 35.2278778 3.69977712 35.2278778 3.69977712 48.1870972.459972291 48.1870972.459972291 35.2278778ZM7.71453527 35.2278778 10.7943497 35.2278778 10.7943497 37.3077525 10.8493464 37.3077525C11.1543281 36.6577917 11.6242997 36.0978254 12.2542618 35.6178543 12.8842238 35.142883 13.7391723 34.9028974 14.8191073 34.9028974 15.6840552 34.9028974 16.4140112 35.0478887 17.0189748 35.3328715 17.6239383 35.622854 18.1139088 35.9978315 18.4888862 36.4678031 18.8688633 36.9377748 19.1388471 37.4777423 19.2988374 38.0877056 19.4588278 38.6976688 19.5438227 39.3376303 19.5438227 40.0025902L19.5438227 48.1820975 16.3040178 48.1820975 16.3040178 41.6224926C16.3040178 41.2625143 16.284019 40.8625384 16.2490211 40.4225649 16.2140233 39.9825914 16.119029 39.5676164 15.9640383 39.1826396 15.8090476 38.7976628 15.5740618 38.4726824 15.2490814 38.212698 14.924101 37.9527137 14.4841275 37.8227215 13.9241612 37.8227215 13.3841937 37.8227215 12.9292211 37.9127161 12.5592434 38.0927053 12.1892657 38.2726944 11.8842841 38.5176797 11.6392988 38.8226613 11.3943136 39.1276429 11.2193241 39.4776218 11.1143305 39.8775977 11.0043371 40.2725739 10.9543401 40.6875489 10.9543401 41.117523L10.9543401 48.1920969 7.71453527 48.1920969 7.71453527 35.2278778 7.71453527 35.2278778ZM29.8532016 38.8176616C29.2232396 37.9377146 28.3782905 37.4927414 27.3133546 37.4927414 26.8833805 37.4927414 26.4584061 37.6027348 26.0434311 37.8177218 25.6284561 38.0327089 25.4234685 38.3826878 25.4234685 38.8726583 25.4234685 39.2676345 25.5934582 39.557617 25.9384374 39.7376062 26.278417 39.9175953 26.7133908 40.072586 27.2333594 40.1975785 27.7533281 40.3225709 28.3182941 40.4525631 28.9232576 40.587555 29.5282212 40.7225468 30.0881875 40.9275345 30.6131558 41.2075176 31.1331245 41.4875008 31.5680983 41.8674779 31.9080778 42.3524486 32.2480573 42.8374194 32.4230468 43.5023794 32.4230468 44.3523282 32.4230468 45.1272815 32.2580567 45.7772423 31.9230769 46.3122101 31.5880971 46.8421782 31.158123 47.2721523 30.6281549 47.592133 30.0981869 47.9171134 29.498223 48.1520993 28.8332631 48.2920908 28.1683031 48.4370821 27.5033432 48.5070779 26.8333835 48.5070779 25.8234444 48.5070779 24.8985001 48.3620866 24.053551 48.0771038 23.2086019 47.7871213 22.4536474 47.2671526 21.7836877 46.5121981L23.9435576 44.48732C24.3585326 44.9572917 24.8035058 45.3372688 25.2784772 45.6372508 25.7534486 45.932233 26.3334136 46.082224 27.0183724 46.082224 27.2533582 46.082224 27.4933438 46.0572255 27.7483284 46.0022288 27.9983134 45.9472321 28.2332992 45.8572375 28.4482862 45.732245 28.6632733 45.6072526 28.8382628 45.4472622 28.9732546 45.2572737 29.1082465 45.0672851 29.1732426 44.8472984 29.1732426 44.5973134 29.1732426 44.1473405 29.0032528 43.8123607 28.6582736 43.5973737 28.3182941 43.3823866 27.8833203 43.2073971 27.3633516 43.0724053 26.8433829 42.9374134 26.278417 42.8124209 25.6734534 42.6924282 25.0684899 42.5774351 24.5085236 42.3874465 23.9835552 42.1274622 23.4635865 41.8674779 23.0286127 41.5024998 22.6886332 41.0325282 22.3486537 40.5625565 22.1736642 39.9175953 22.1736642 39.0876453 22.1736642 38.3676887 22.3236552 37.7427263 22.6186374 37.2127583 22.9136197 36.6827902 23.3085959 36.2478164 23.7935667 35.9028372 24.2785374 35.5628577 24.8385037 35.307873 25.4684658 35.1478827 26.0984278 34.9878923 26.7383893 34.9028974 27.3833504 34.9028974 28.2482983 34.9028974 29.1032468 35.0528884 29.9481959 35.3478706 30.793145 35.6428528 31.4781037 36.1528221 31.9980724 36.8727787L29.8532016 38.8176616ZM33.6829709 37.9827119 33.6829709 35.2278778 36.1078248 35.2278778 36.1078248 31.473104 39.3476297 31.473104 39.3476297 35.2278778 42.9124149 35.2278778 42.9124149 37.9827119 39.3476297 37.9827119 39.3476297 43.6523703C39.3476297 44.3023312 39.4676224 44.8123005 39.7126077 45.1922776 39.9575929 45.5722547 40.437564 45.7572435 41.1575206 45.7572435 41.4475032 45.7572435 41.7624842 45.7272453 42.1024637 45.6622493 42.4424432 45.5972532 42.712427 45.4972592 42.9124149 45.3522679L42.9124149 48.0771038C42.5724354 48.2370942 42.1524607 48.3520872 41.6574905 48.4120836 41.1625203 48.4770797 40.7275465 48.5070779 40.3475694 48.5070779 39.4826215 48.5070779 38.777664 48.4120836 38.2276971 48.2220951 37.6777303 48.0321065 37.2477562 47.7471237 36.9327751 47.3571472 36.6177941 46.9721704 36.4028071 46.4871996 36.2828143 45.9122342 36.1678212 45.3372688 36.1078248 44.6723089 36.1078248 43.9123547L36.1078248 37.9727125 33.6829709 37.9727125 33.6829709 37.9827119ZM45.6322511 30.8281429C45.6322511 30.3081742 45.8272393 29.8532016 46.2122161 29.4632251 46.5971929 29.0782483 47.0871634 28.88326 47.6821276 28.88326 48.2770917 28.88326 48.7770616 29.0682489 49.1820372 29.4382266 49.5870128 29.8082043 49.7920005 30.2731763 49.7920005 30.8281429 49.7920005 31.3831095 49.5870128 31.8480814 49.1820372 32.2180592 48.7770616 32.5880369 48.2770917 32.7730257 47.6821276 32.7730257 47.0871634 32.7730257 46.5971929 32.5780375 46.2122161 32.1930607 45.8272393 31.8030842 45.6322511 31.3481116 45.6322511 30.8281429ZM46.0922234 35.2278778 49.3320282 35.2278778 49.3320282 48.1870972 46.0922234 48.1870972 46.0922234 35.2278778 46.0922234 35.2278778ZM52.2868502 37.9827119 52.2868502 35.2278778 54.7117041 35.2278778 54.7117041 31.473104 57.9515089 31.473104 57.9515089 35.2278778 61.5162942 35.2278778 61.5162942 37.9827119 57.9515089 37.9827119 57.9515089 43.6523703C57.9515089 44.3023312 58.0715017 44.8123005 58.316487 45.1922776 58.5614722 45.5722547 59.0414433 45.7572435 59.7613999 45.7572435 60.0513824 45.7572435 60.3663635 45.7272453 60.706343 45.6622493 61.0463225 45.5972532 61.3163062 45.4972592 61.5162942 45.3522679L61.5162942 48.0771038C61.1763147 48.2370942 60.75634 48.3520872 60.2613698 48.4120836 59.7663996 48.4770797 59.3314258 48.5070779 58.9514487 48.5070779 58.0865008 48.5070779 57.3815433 48.4120836 56.8315764 48.2220951 56.2816095 48.0321065 55.8516354 47.7471237 55.5366544 47.3571472 55.2216734 46.9721704 55.0066863 46.4871996 54.8866936 45.9122342 54.7717005 45.3372688 54.7117041 44.6723089 54.7117041 43.9123547L54.7117041 37.9727125 52.2868502 37.9727125 52.2868502 37.9827119ZM76.6653816 48.1870972 73.5855671 48.1870972 73.5855671 46.1072225 73.5305704 46.1072225C73.2255888 46.7571833 72.7556171 47.3171496 72.1256551 47.7971207 71.495693 48.272092 70.6407445 48.5120776 69.5608096 48.5120776 68.6958617 48.5120776 67.960906 48.372086 67.3609421 48.0921029 66.7559786 47.8121198 66.2660081 47.4371423 65.8910307 46.9571713 65.5110536 46.4821999 65.2410698 45.9372327 65.0810795 45.3222697 64.9210891 44.7123065 64.8360942 44.072345 64.8360942 43.4073851L64.8360942 35.2278778 68.075899 35.2278778 68.075899 41.7874827C68.075899 42.147461 68.0958978 42.5474369 68.1308957 42.9874104 68.1658936 43.4273839 68.2608879 43.8423589 68.4158786 44.2273357 68.5708692 44.6123125 68.8008554 44.9372929 69.1158364 45.1972773 69.4308174 45.4572616 69.8757906 45.5872538 70.450756 45.5872538 70.9907235 45.5872538 71.445696 45.4972592 71.8156738 45.31727 72.1856515 45.1372809 72.4906331 44.8922956 72.7356183 44.587314 72.9806036 44.2823324 73.155593 43.9323535 73.2605867 43.5323776 73.3705801 43.1374014 73.4205771 42.7224264 73.4205771 42.2924523L73.4205771 35.2178784 76.6603819 35.2178784 76.6603819 48.1870972 76.6653816 48.1870972ZM92.1144509 48.1870972 89.0346365 48.1870972 89.0346365 46.1072225 88.9796398 46.1072225C88.6746582 46.7571833 88.2046865 47.3171496 87.5747244 47.7971207 86.9447624 48.272092 86.0898139 48.5120776 85.0098789 48.5120776 84.144931 48.5120776 83.4099753 48.372086 82.8100114 48.0921029 82.2050479 47.8121198 81.7150774 47.4371423 81.3401 46.9571713 80.9601229 46.4821999 80.6901391 45.9372327 80.5301488 45.3222697 80.3701584 44.7123065 80.2851635 44.072345 80.2851635 43.4073851L80.2851635 35.2278778 83.5249684 35.2278778 83.5249684 41.7874827C83.5249684 42.147461 83.5449672 42.5474369 83.5799651 42.9874104 83.614963 43.4273839 83.7099572 43.8423589 83.8649479 44.2273357 84.0199386 44.6123125 84.2499247 44.9372929 84.5649057 45.1972773 84.8798868 45.4572616 85.3248599 45.5872538 85.8998253 45.5872538 86.4397928 45.5872538 86.8947654 45.4972592 87.2647431 45.31727 87.6347208 45.1372809 87.9397024 44.8922956 88.1846877 44.587314 88.4296729 44.2823324 88.6046624 43.9323535 88.709656 43.5323776 88.8196494 43.1374014 88.8696464 42.7224264 88.8696464 42.2924523L88.8696464 35.2178784 92.1144509 35.2178784 92.1144509 48.1870972ZM94.8642853 37.9827119 94.8642853 35.2278778 97.2891392 35.2278778 97.2891392 31.473104 100.528944 31.473104 100.528944 35.2278778 104.093729 35.2278778 104.093729 37.9827119 100.528944 37.9827119 100.528944 43.6523703C100.528944 44.3023312 100.648937 44.8123005 100.893922 45.1922776 101.138907 45.5722547 101.618878 45.7572435 102.338835 45.7572435 102.628818 45.7572435 102.943799 45.7272453 103.283778 45.6622493 103.623758 45.5972532 103.893741 45.4972592 104.093729 45.3522679L104.093729 48.0771038C103.75375 48.2370942 103.333775 48.3520872 102.838805 48.4120836 102.343835 48.4770797 101.908861 48.5070779 101.528884 48.5070779 100.663936 48.5070779 99.9589784 48.4120836 99.4090115 48.2220951 98.8590446 48.0321065 98.4290705 47.7471237 98.1140895 47.3571472 97.7991085 46.9721704 97.5841214 46.4871996 97.4641287 45.9122342 97.3491356 45.3372688 97.2891392 44.6723089 97.2891392 43.9123547L97.2891392 37.9727125 94.8642853 37.9727125 94.8642853 37.9827119Z" transform="translate(61.906 18.424)"/></g></svg>